<?xml version="1.0" encoding="iso-8859-1"?>
<!-- Generator: Adobe Illustrator 19.0.0, SVG Export Plug-In . SVG Version: 6.00 Build 0)  -->
<svg version="1.1" id="Capa_1" xmlns="http://www.w3.org/2000/svg" xmlns:xlink="http://www.w3.org/1999/xlink" x="0px" y="0px" viewBox="0 0 512 512" style="enable-background:new 0 0 512 512;" xml:space="preserve"><g><g><path d="M416,144c-1.024,0-2.048,0-3.136,0.032C397.952,70.016,333.088,16,256,16c-64.032,0-121.504,38.112-146.688,96.032 C48.8,113.472,0,163.136,0,224c0,61.76,50.24,112,112,112h304c52.928,0,96-43.072,96-96C512,187.072,468.928,144,416,144z"/></g></g><g><g><path d="M413.152,374.912c-5.92-8.64-20.384-8.64-26.304,0C376.384,390.048,352,427.52,352,448c0,26.464,21.536,48,48,48 s48-21.536,48-48C448,427.52,423.616,390.048,413.152,374.912z"/></g></g><g><g><path d="M269.152,374.912c-5.952-8.64-20.352-8.64-26.304,0C232.352,390.048,208,427.52,208,448c0,26.464,21.536,48,48,48 s48-21.536,48-48C304,427.52,279.648,390.048,269.152,374.912z"/></g></g><g><g><path d="M125.152,374.912c-5.952-8.64-20.352-8.64-26.304,0C88.352,390.048,64,427.52,64,448c0,26.464,21.536,48,48,48 s48-21.536,48-48C160,427.52,135.648,390.048,125.152,374.912z"/></g></g></svg>
